<svg width="1144" height="286" viewBox="0 0 1144 286" fill="none" xmlns="http://www.w3.org/2000/svg">
<path d="M108.464 176.1L71.336 124.188V176.1H38.408V57.6601H71.336V108.732L108.128 57.6601H146.096L102.584 115.116L148.28 176.1H108.464ZM208.69 177.276C197.602 177.276 187.41 174.7 178.114 169.548C168.818 164.284 161.426 157.06 155.938 147.876C150.562 138.58 147.874 128.108 147.874 116.46C147.874 104.812 150.562 94.3961 155.938 85.2121C161.426 75.9161 168.818 68.6921 178.114 63.5401C187.41 58.3881 197.602 55.8121 208.69 55.8121C219.89 55.8121 230.082 58.3881 239.266 63.5401C248.562 68.6921 255.898 75.9161 261.274 85.2121C266.65 94.3961 269.338 104.812 269.338 116.46C269.338 128.108 266.65 138.58 261.274 147.876C255.898 157.06 248.562 164.284 239.266 169.548C229.97 174.7 219.778 177.276 208.69 177.276ZM208.69 146.7C217.09 146.7 223.698 143.956 228.514 138.468C233.442 132.98 235.906 125.644 235.906 116.46C235.906 107.052 233.442 99.6601 228.514 94.2841C223.698 88.7961 217.09 86.0521 208.69 86.0521C200.178 86.0521 193.514 88.7961 188.698 94.2841C183.882 99.6601 181.474 107.052 181.474 116.46C181.474 125.756 183.882 133.148 188.698 138.636C193.514 144.012 200.178 146.7 208.69 146.7ZM308.669 57.6601V176.1H275.741V57.6601H308.669ZM375.804 177.276C364.716 177.276 354.524 174.7 345.228 169.548C335.932 164.284 328.54 157.06 323.052 147.876C317.676 138.58 314.988 128.108 314.988 116.46C314.988 104.812 317.676 94.3961 323.052 85.2121C328.54 75.9161 335.932 68.6921 345.228 63.5401C354.524 58.3881 364.716 55.8121 375.804 55.8121C387.004 55.8121 397.196 58.3881 406.38 63.5401C415.676 68.6921 423.012 75.9161 428.388 85.2121C433.764 94.3961 436.452 104.812 436.452 116.46C436.452 128.108 433.764 138.58 428.388 147.876C423.012 157.06 415.676 164.284 406.38 169.548C397.084 174.7 386.892 177.276 375.804 177.276ZM375.804 146.7C384.204 146.7 390.812 143.956 395.628 138.468C400.556 132.98 403.02 125.644 403.02 116.46C403.02 107.052 400.556 99.6601 395.628 94.2841C390.812 88.7961 384.204 86.0521 375.804 86.0521C367.292 86.0521 360.628 88.7961 355.812 94.2841C350.996 99.6601 348.588 107.052 348.588 116.46C348.588 125.756 350.996 133.148 355.812 138.636C360.628 144.012 367.292 146.7 375.804 146.7ZM487.543 177.276C473.767 177.276 462.455 174.028 453.607 167.532C444.759 160.924 439.999 151.516 439.327 139.308H474.439C474.775 143.452 476.007 146.476 478.135 148.38C480.263 150.284 483.007 151.236 486.367 151.236C489.391 151.236 491.855 150.508 493.759 149.052C495.775 147.484 496.783 145.356 496.783 142.668C496.783 139.196 495.159 136.508 491.911 134.604C488.663 132.7 483.399 130.572 476.119 128.22C468.391 125.644 462.119 123.18 457.303 120.828C452.599 118.364 448.455 114.836 444.871 110.244C441.399 105.54 439.663 99.4361 439.663 91.9321C439.663 84.3161 441.567 77.8201 445.375 72.4441C449.183 66.9561 454.447 62.8121 461.167 60.0121C467.887 57.2121 475.503 55.8121 484.015 55.8121C497.791 55.8121 508.767 59.0601 516.943 65.5561C525.231 71.9401 529.655 80.9561 530.215 92.6041H494.431C494.319 89.0201 493.199 86.3321 491.071 84.5401C489.055 82.7481 486.423 81.8521 483.175 81.8521C480.711 81.8521 478.695 82.5801 477.127 84.0361C475.559 85.4921 474.775 87.5641 474.775 90.2521C474.775 92.4921 475.615 94.4521 477.295 96.1321C479.087 97.7001 481.271 99.1001 483.847 100.332C486.423 101.452 490.231 102.908 495.271 104.7C502.775 107.276 508.935 109.852 513.751 112.428C518.679 114.892 522.879 118.42 526.351 123.012C529.935 127.492 531.727 133.204 531.727 140.148C531.727 147.204 529.935 153.532 526.351 159.132C522.879 164.732 517.783 169.156 511.063 172.404C504.455 175.652 496.615 177.276 487.543 177.276ZM607.079 177.276C593.303 177.276 581.991 174.028 573.143 167.532C564.295 160.924 559.535 151.516 558.863 139.308H593.975C594.311 143.452 595.543 146.476 597.671 148.38C599.799 150.284 602.543 151.236 605.903 151.236C608.927 151.236 611.391 150.508 613.295 149.052C615.311 147.484 616.319 145.356 616.319 142.668C616.319 139.196 614.695 136.508 611.447 134.604C608.199 132.7 602.935 130.572 595.655 128.22C587.927 125.644 581.655 123.18 576.839 120.828C572.135 118.364 567.991 114.836 564.407 110.244C560.935 105.54 559.199 99.4361 559.199 91.9321C559.199 84.3161 561.103 77.8201 564.911 72.4441C568.719 66.9561 573.983 62.8121 580.703 60.0121C587.423 57.2121 595.039 55.8121 603.551 55.8121C617.327 55.8121 628.303 59.0601 636.479 65.5561C644.767 71.9401 649.191 80.9561 649.751 92.6041H613.967C613.855 89.0201 612.735 86.3321 610.607 84.5401C608.591 82.7481 605.959 81.8521 602.711 81.8521C600.247 81.8521 598.231 82.5801 596.663 84.0361C595.095 85.4921 594.311 87.5641 594.311 90.2521C594.311 92.4921 595.151 94.4521 596.831 96.1321C598.623 97.7001 600.807 99.1001 603.383 100.332C605.959 101.452 609.767 102.908 614.807 104.7C622.311 107.276 628.471 109.852 633.287 112.428C638.215 114.892 642.415 118.42 645.887 123.012C649.471 127.492 651.263 133.204 651.263 140.148C651.263 147.204 649.471 153.532 645.887 159.132C642.415 164.732 637.319 169.156 630.599 172.404C623.991 175.652 616.151 177.276 607.079 177.276ZM747.379 57.6601V83.8681H715.795V176.1H682.867V83.8681H651.619V57.6601H747.379ZM783.417 57.6601V126.372C783.417 132.756 784.873 137.684 787.785 141.156C790.809 144.628 795.345 146.364 801.393 146.364C807.441 146.364 811.977 144.628 815.001 141.156C818.137 137.572 819.705 132.644 819.705 126.372V57.6601H852.633V126.372C852.633 137.236 850.337 146.532 845.745 154.26C841.153 161.876 834.881 167.644 826.929 171.564C819.089 175.372 810.353 177.276 800.721 177.276C791.089 177.276 782.465 175.372 774.849 171.564C767.345 167.644 761.409 161.876 757.041 154.26C752.785 146.644 750.657 137.348 750.657 126.372V57.6601H783.417ZM909.235 57.6601C921.667 57.6601 932.531 60.1801 941.827 65.2201C951.235 70.1481 958.459 77.0921 963.499 86.0521C968.539 95.0121 971.059 105.26 971.059 116.796C971.059 128.22 968.483 138.412 963.331 147.372C958.291 156.332 951.067 163.388 941.659 168.54C932.363 173.58 921.555 176.1 909.235 176.1H862.363V57.6601H909.235ZM906.715 147.036C916.347 147.036 923.907 144.404 929.395 139.14C934.883 133.876 937.627 126.428 937.627 116.796C937.627 107.052 934.883 99.5481 929.395 94.2841C923.907 88.9081 916.347 86.2201 906.715 86.2201H895.291V147.036H906.715ZM1010.43 57.6601V176.1H977.502V57.6601H1010.43ZM1077.57 177.276C1066.48 177.276 1056.29 174.7 1046.99 169.548C1037.69 164.284 1030.3 157.06 1024.81 147.876C1019.44 138.58 1016.75 128.108 1016.75 116.46C1016.75 104.812 1019.44 94.3961 1024.81 85.2121C1030.3 75.9161 1037.69 68.6921 1046.99 63.5401C1056.29 58.3881 1066.48 55.8121 1077.57 55.8121C1088.77 55.8121 1098.96 58.3881 1108.14 63.5401C1117.44 68.6921 1124.77 75.9161 1130.15 85.2121C1135.53 94.3961 1138.21 104.812 1138.21 116.46C1138.21 128.108 1135.53 138.58 1130.15 147.876C1124.77 157.06 1117.44 164.284 1108.14 169.548C1098.85 174.7 1088.65 177.276 1077.57 177.276ZM1077.57 146.7C1085.97 146.7 1092.57 143.956 1097.39 138.468C1102.32 132.98 1104.78 125.644 1104.78 116.46C1104.78 107.052 1102.32 99.6601 1097.39 94.2841C1092.57 88.7961 1085.97 86.0521 1077.57 86.0521C1069.05 86.0521 1062.39 88.7961 1057.57 94.2841C1052.76 99.6601 1050.35 107.052 1050.35 116.46C1050.35 125.756 1052.76 133.148 1057.57 138.636C1062.39 144.012 1069.05 146.7 1077.57 146.7Z" fill="url(#paint0_linear_693_2573)" fill-opacity="0.3"/>
<path d="M108.464 162.1L71.336 214.012V162.1H38.408V280.54H71.336V229.468L108.128 280.54H146.096L102.584 223.084L148.28 162.1H108.464ZM208.69 160.924C197.602 160.924 187.41 163.5 178.114 168.652C168.818 173.916 161.426 181.14 155.938 190.324C150.562 199.62 147.874 210.092 147.874 221.74C147.874 233.388 150.562 243.804 155.938 252.988C161.426 262.284 168.818 269.508 178.114 274.66C187.41 279.812 197.602 282.388 208.69 282.388C219.89 282.388 230.082 279.812 239.266 274.66C248.562 269.508 255.898 262.284 261.274 252.988C266.65 243.804 269.338 233.388 269.338 221.74C269.338 210.092 266.65 199.62 261.274 190.324C255.898 181.14 248.562 173.916 239.266 168.652C229.97 163.5 219.778 160.924 208.69 160.924ZM208.69 191.5C217.09 191.5 223.698 194.244 228.514 199.732C233.442 205.22 235.906 212.556 235.906 221.74C235.906 231.148 233.442 238.54 228.514 243.916C223.698 249.404 217.09 252.148 208.69 252.148C200.178 252.148 193.514 249.404 188.698 243.916C183.882 238.54 181.474 231.148 181.474 221.74C181.474 212.444 183.882 205.052 188.698 199.564C193.514 194.188 200.178 191.5 208.69 191.5ZM308.669 280.54V162.1H275.741V280.54H308.669ZM375.804 160.924C364.716 160.924 354.524 163.5 345.228 168.652C335.932 173.916 328.54 181.14 323.052 190.324C317.676 199.62 314.988 210.092 314.988 221.74C314.988 233.388 317.676 243.804 323.052 252.988C328.54 262.284 335.932 269.508 345.228 274.66C354.524 279.812 364.716 282.388 375.804 282.388C387.004 282.388 397.196 279.812 406.38 274.66C415.676 269.508 423.012 262.284 428.388 252.988C433.764 243.804 436.452 233.388 436.452 221.74C436.452 210.092 433.764 199.62 428.388 190.324C423.012 181.14 415.676 173.916 406.38 168.652C397.084 163.5 386.892 160.924 375.804 160.924ZM375.804 191.5C384.204 191.5 390.812 194.244 395.628 199.732C400.556 205.22 403.02 212.556 403.02 221.74C403.02 231.148 400.556 238.54 395.628 243.916C390.812 249.404 384.204 252.148 375.804 252.148C367.292 252.148 360.628 249.404 355.812 243.916C350.996 238.54 348.588 231.148 348.588 221.74C348.588 212.444 350.996 205.052 355.812 199.564C360.628 194.188 367.292 191.5 375.804 191.5ZM487.543 160.924C473.767 160.924 462.455 164.172 453.607 170.668C444.759 177.276 439.999 186.684 439.327 198.892H474.439C474.775 194.748 476.007 191.724 478.135 189.82C480.263 187.916 483.007 186.964 486.367 186.964C489.391 186.964 491.855 187.692 493.759 189.148C495.775 190.716 496.783 192.844 496.783 195.532C496.783 199.004 495.159 201.692 491.911 203.596C488.663 205.5 483.399 207.628 476.119 209.98C468.391 212.556 462.119 215.02 457.303 217.372C452.599 219.836 448.455 223.364 444.871 227.956C441.399 232.66 439.663 238.764 439.663 246.268C439.663 253.884 441.567 260.38 445.375 265.756C449.183 271.244 454.447 275.388 461.167 278.188C467.887 280.988 475.503 282.388 484.015 282.388C497.791 282.388 508.767 279.14 516.943 272.644C525.231 266.26 529.655 257.244 530.215 245.596H494.431C494.319 249.18 493.199 251.868 491.071 253.66C489.055 255.452 486.423 256.348 483.175 256.348C480.711 256.348 478.695 255.62 477.127 254.164C475.559 252.708 474.775 250.636 474.775 247.948C474.775 245.708 475.615 243.748 477.295 242.068C479.087 240.5 481.271 239.1 483.847 237.868C486.423 236.748 490.231 235.292 495.271 233.5C502.775 230.924 508.935 228.348 513.751 225.772C518.679 223.308 522.879 219.78 526.351 215.188C529.935 210.708 531.727 204.996 531.727 198.052C531.727 190.996 529.935 184.668 526.351 179.068C522.879 173.468 517.783 169.044 511.063 165.796C504.455 162.548 496.615 160.924 487.543 160.924ZM607.079 160.924C593.303 160.924 581.991 164.172 573.143 170.668C564.295 177.276 559.535 186.684 558.863 198.892H593.975C594.311 194.748 595.543 191.724 597.671 189.82C599.799 187.916 602.543 186.964 605.903 186.964C608.927 186.964 611.391 187.692 613.295 189.148C615.311 190.716 616.319 192.844 616.319 195.532C616.319 199.004 614.695 201.692 611.447 203.596C608.199 205.5 602.935 207.628 595.655 209.98C587.927 212.556 581.655 215.02 576.839 217.372C572.135 219.836 567.991 223.364 564.407 227.956C560.935 232.66 559.199 238.764 559.199 246.268C559.199 253.884 561.103 260.38 564.911 265.756C568.719 271.244 573.983 275.388 580.703 278.188C587.423 280.988 595.039 282.388 603.551 282.388C617.327 282.388 628.303 279.14 636.479 272.644C644.767 266.26 649.191 257.244 649.751 245.596H613.967C613.855 249.18 612.735 251.868 610.607 253.66C608.591 255.452 605.959 256.348 602.711 256.348C600.247 256.348 598.231 255.62 596.663 254.164C595.095 252.708 594.311 250.636 594.311 247.948C594.311 245.708 595.151 243.748 596.831 242.068C598.623 240.5 600.807 239.1 603.383 237.868C605.959 236.748 609.767 235.292 614.807 233.5C622.311 230.924 628.471 228.348 633.287 225.772C638.215 223.308 642.415 219.78 645.887 215.188C649.471 210.708 651.263 204.996 651.263 198.052C651.263 190.996 649.471 184.668 645.887 179.068C642.415 173.468 637.319 169.044 630.599 165.796C623.991 162.548 616.151 160.924 607.079 160.924ZM747.379 280.54V254.332H715.795V162.1H682.867V254.332H651.619V280.54H747.379ZM783.417 280.54V211.828C783.417 205.444 784.873 200.516 787.785 197.044C790.809 193.572 795.345 191.836 801.393 191.836C807.441 191.836 811.977 193.572 815.001 197.044C818.137 200.628 819.705 205.556 819.705 211.828V280.54H852.633V211.828C852.633 200.964 850.337 191.668 845.745 183.94C841.153 176.324 834.881 170.556 826.929 166.636C819.089 162.828 810.353 160.924 800.721 160.924C791.089 160.924 782.465 162.828 774.849 166.636C767.345 170.556 761.409 176.324 757.041 183.94C752.785 191.556 750.657 200.852 750.657 211.828V280.54H783.417ZM909.235 280.54C921.667 280.54 932.531 278.02 941.827 272.98C951.235 268.052 958.459 261.108 963.499 252.148C968.539 243.188 971.059 232.94 971.059 221.404C971.059 209.98 968.483 199.788 963.331 190.828C958.291 181.868 951.067 174.812 941.659 169.66C932.363 164.62 921.555 162.1 909.235 162.1H862.363V280.54H909.235ZM906.715 191.164C916.347 191.164 923.907 193.796 929.395 199.06C934.883 204.324 937.627 211.772 937.627 221.404C937.627 231.148 934.883 238.652 929.395 243.916C923.907 249.292 916.347 251.98 906.715 251.98H895.291V191.164H906.715ZM1010.43 280.54V162.1H977.502V280.54H1010.43ZM1077.57 160.924C1066.48 160.924 1056.29 163.5 1046.99 168.652C1037.69 173.916 1030.3 181.14 1024.81 190.324C1019.44 199.62 1016.75 210.092 1016.75 221.74C1016.75 233.388 1019.44 243.804 1024.81 252.988C1030.3 262.284 1037.69 269.508 1046.99 274.66C1056.29 279.812 1066.48 282.388 1077.57 282.388C1088.77 282.388 1098.96 279.812 1108.14 274.66C1117.44 269.508 1124.77 262.284 1130.15 252.988C1135.53 243.804 1138.21 233.388 1138.21 221.74C1138.21 210.092 1135.53 199.62 1130.15 190.324C1124.77 181.14 1117.44 173.916 1108.14 168.652C1098.85 163.5 1088.65 160.924 1077.57 160.924ZM1077.57 191.5C1085.97 191.5 1092.57 194.244 1097.39 199.732C1102.32 205.22 1104.78 212.556 1104.78 221.74C1104.78 231.148 1102.32 238.54 1097.39 243.916C1092.57 249.404 1085.97 252.148 1077.57 252.148C1069.05 252.148 1062.39 249.404 1057.57 243.916C1052.76 238.54 1050.35 231.148 1050.35 221.74C1050.35 212.444 1052.76 205.052 1057.57 199.564C1062.39 194.188 1069.05 191.5 1077.57 191.5Z" fill="url(#paint1_linear_693_2573)" fill-opacity="0.05"/>
<g opacity="0.6">
<path d="M14.3676 3.66207L17.6243 6.47902L21.8825 5.84047L19.0656 9.09709L19.7041 13.3554L16.4475 10.5384L12.1892 11.177L15.0062 7.92036L14.3676 3.66207Z" fill="white"/>
<path d="M2.24462 18.0404L4.40487 18.558L6.20394 17.2549L5.68641 19.4152L6.98944 21.2142L4.82919 20.6967L3.03012 21.9997L3.54766 19.8395L2.24462 18.0404Z" fill="white" fill-opacity="0.4"/>
<path d="M30.4092 1.18255L31.7291 2.09775L33.283 1.69151L32.3678 3.01141L32.774 4.56534L31.4541 3.65014L29.9002 4.05639L30.8154 2.73648L30.4092 1.18255Z" fill="white" fill-opacity="0.4"/>
<path d="M42.0503 8.77923L43.3702 9.69443L44.9241 9.28819L44.0089 10.6081L44.4152 12.162L43.0953 11.2468L41.5413 11.6531L42.4565 10.3332L42.0503 8.77923Z" fill="white" fill-opacity="0.2"/>
</g>
<path opacity="0.1" d="M13.7099 282.024L16.9665 279.207L21.2248 279.845L18.4079 276.589L19.0464 272.33L15.7898 275.147L11.5315 274.509L14.3485 277.765L13.7099 282.024Z" fill="#FFBF00"/>
<path opacity="0.1" d="M1.58691 267.646L3.74716 267.128L5.54622 268.431L5.02869 266.271L6.33172 264.472L4.17147 264.99L2.37241 263.687L2.88994 265.847L1.58691 267.646Z" fill="#FFBF00" fill-opacity="0.8"/>
<path opacity="0.1" d="M29.7515 284.504L31.0714 283.589L32.6253 283.995L31.7101 282.675L32.1163 281.121L30.7964 282.036L29.2425 281.63L30.1577 282.95L29.7515 284.504Z" fill="#FFBF00" fill-opacity="0.8"/>
<path opacity="0.1" d="M41.3926 276.907L42.7125 275.992L44.2664 276.398L43.3512 275.078L43.7574 273.524L42.4375 274.439L40.8836 274.033L41.7988 275.353L41.3926 276.907Z" fill="#FFBF00" fill-opacity="0.5"/>
<defs>
<linearGradient id="paint0_linear_693_2573" x1="586.5" y1="-139.5" x2="586.5" y2="169.1" gradientUnits="userSpaceOnUse">
<stop offset="0.285546" stop-color="white" stop-opacity="0.5"/>
<stop offset="1" stop-color="#121212"/>
</linearGradient>
<linearGradient id="paint1_linear_693_2573" x1="586.5" y1="515.6" x2="586.5" y2="169.1" gradientUnits="userSpaceOnUse">
<stop offset="0.484" stop-color="white" stop-opacity="0.5"/>
<stop offset="1" stop-color="#121212"/>
</linearGradient>
</defs>
</svg>
