<svg width="1070" height="286" viewBox="0 0 1070 286" fill="none" xmlns="http://www.w3.org/2000/svg">
<path d="M153.464 176.1L116.336 124.188V176.1H83.408V57.6601H116.336V108.732L153.128 57.6601H191.096L147.584 115.116L193.28 176.1H153.464ZM253.69 177.276C242.602 177.276 232.41 174.7 223.114 169.548C213.818 164.284 206.426 157.06 200.938 147.876C195.562 138.58 192.874 128.108 192.874 116.46C192.874 104.812 195.562 94.3961 200.938 85.2121C206.426 75.9161 213.818 68.6921 223.114 63.5401C232.41 58.3881 242.602 55.8121 253.69 55.8121C264.89 55.8121 275.082 58.3881 284.266 63.5401C293.562 68.6921 300.898 75.9161 306.274 85.2121C311.65 94.3961 314.338 104.812 314.338 116.46C314.338 128.108 311.65 138.58 306.274 147.876C300.898 157.06 293.562 164.284 284.266 169.548C274.97 174.7 264.778 177.276 253.69 177.276ZM253.69 146.7C262.09 146.7 268.698 143.956 273.514 138.468C278.442 132.98 280.906 125.644 280.906 116.46C280.906 107.052 278.442 99.6601 273.514 94.2841C268.698 88.7961 262.09 86.0521 253.69 86.0521C245.178 86.0521 238.514 88.7961 233.698 94.2841C228.882 99.6601 226.474 107.052 226.474 116.46C226.474 125.756 228.882 133.148 233.698 138.636C238.514 144.012 245.178 146.7 253.69 146.7ZM353.669 57.6601V176.1H320.741V57.6601H353.669ZM420.804 177.276C409.716 177.276 399.524 174.7 390.228 169.548C380.932 164.284 373.54 157.06 368.052 147.876C362.676 138.58 359.988 128.108 359.988 116.46C359.988 104.812 362.676 94.3961 368.052 85.2121C373.54 75.9161 380.932 68.6921 390.228 63.5401C399.524 58.3881 409.716 55.8121 420.804 55.8121C432.004 55.8121 442.196 58.3881 451.38 63.5401C460.676 68.6921 468.012 75.9161 473.388 85.2121C478.764 94.3961 481.452 104.812 481.452 116.46C481.452 128.108 478.764 138.58 473.388 147.876C468.012 157.06 460.676 164.284 451.38 169.548C442.084 174.7 431.892 177.276 420.804 177.276ZM420.804 146.7C429.204 146.7 435.812 143.956 440.628 138.468C445.556 132.98 448.02 125.644 448.02 116.46C448.02 107.052 445.556 99.6601 440.628 94.2841C435.812 88.7961 429.204 86.0521 420.804 86.0521C412.292 86.0521 405.628 88.7961 400.812 94.2841C395.996 99.6601 393.588 107.052 393.588 116.46C393.588 125.756 395.996 133.148 400.812 138.636C405.628 144.012 412.292 146.7 420.804 146.7ZM532.543 177.276C518.767 177.276 507.455 174.028 498.607 167.532C489.759 160.924 484.999 151.516 484.327 139.308H519.439C519.775 143.452 521.007 146.476 523.135 148.38C525.263 150.284 528.007 151.236 531.367 151.236C534.391 151.236 536.855 150.508 538.759 149.052C540.775 147.484 541.783 145.356 541.783 142.668C541.783 139.196 540.159 136.508 536.911 134.604C533.663 132.7 528.399 130.572 521.119 128.22C513.391 125.644 507.119 123.18 502.303 120.828C497.599 118.364 493.455 114.836 489.871 110.244C486.399 105.54 484.663 99.4361 484.663 91.9321C484.663 84.3161 486.567 77.8201 490.375 72.4441C494.183 66.9561 499.447 62.8121 506.167 60.0121C512.887 57.2121 520.503 55.8121 529.015 55.8121C542.791 55.8121 553.767 59.0601 561.943 65.5561C570.231 71.9401 574.655 80.9561 575.215 92.6041H539.431C539.319 89.0201 538.199 86.3321 536.071 84.5401C534.055 82.7481 531.423 81.8521 528.175 81.8521C525.711 81.8521 523.695 82.5801 522.127 84.0361C520.559 85.4921 519.775 87.5641 519.775 90.2521C519.775 92.4921 520.615 94.4521 522.295 96.1321C524.087 97.7001 526.271 99.1001 528.847 100.332C531.423 101.452 535.231 102.908 540.271 104.7C547.775 107.276 553.935 109.852 558.751 112.428C563.679 114.892 567.879 118.42 571.351 123.012C574.935 127.492 576.727 133.204 576.727 140.148C576.727 147.204 574.935 153.532 571.351 159.132C567.879 164.732 562.783 169.156 556.063 172.404C549.455 175.652 541.615 177.276 532.543 177.276ZM672.843 57.6601V83.8681H641.259V176.1H608.331V83.8681H577.083V57.6601H672.843ZM708.881 57.6601V126.372C708.881 132.756 710.337 137.684 713.249 141.156C716.273 144.628 720.809 146.364 726.857 146.364C732.905 146.364 737.441 144.628 740.465 141.156C743.601 137.572 745.169 132.644 745.169 126.372V57.6601H778.097V126.372C778.097 137.236 775.801 146.532 771.209 154.26C766.617 161.876 760.345 167.644 752.393 171.564C744.553 175.372 735.817 177.276 726.185 177.276C716.553 177.276 707.929 175.372 700.313 171.564C692.809 167.644 686.873 161.876 682.505 154.26C678.249 146.644 676.121 137.348 676.121 126.372V57.6601H708.881ZM834.699 57.6601C847.131 57.6601 857.995 60.1801 867.291 65.2201C876.699 70.1481 883.923 77.0921 888.963 86.0521C894.003 95.0121 896.523 105.26 896.523 116.796C896.523 128.22 893.947 138.412 888.795 147.372C883.755 156.332 876.531 163.388 867.123 168.54C857.827 173.58 847.019 176.1 834.699 176.1H787.827V57.6601H834.699ZM832.179 147.036C841.811 147.036 849.371 144.404 854.859 139.14C860.347 133.876 863.091 126.428 863.091 116.796C863.091 107.052 860.347 99.5481 854.859 94.2841C849.371 88.9081 841.811 86.2201 832.179 86.2201H820.755V147.036H832.179ZM935.894 57.6601V176.1H902.966V57.6601H935.894ZM1003.03 177.276C991.942 177.276 981.75 174.7 972.454 169.548C963.158 164.284 955.766 157.06 950.278 147.876C944.902 138.58 942.214 128.108 942.214 116.46C942.214 104.812 944.902 94.3961 950.278 85.2121C955.766 75.9161 963.158 68.6921 972.454 63.5401C981.75 58.3881 991.942 55.8121 1003.03 55.8121C1014.23 55.8121 1024.42 58.3881 1033.61 63.5401C1042.9 68.6921 1050.24 75.9161 1055.61 85.2121C1060.99 94.3961 1063.68 104.812 1063.68 116.46C1063.68 128.108 1060.99 138.58 1055.61 147.876C1050.24 157.06 1042.9 164.284 1033.61 169.548C1024.31 174.7 1014.12 177.276 1003.03 177.276ZM1003.03 146.7C1011.43 146.7 1018.04 143.956 1022.85 138.468C1027.78 132.98 1030.25 125.644 1030.25 116.46C1030.25 107.052 1027.78 99.6601 1022.85 94.2841C1018.04 88.7961 1011.43 86.0521 1003.03 86.0521C994.518 86.0521 987.854 88.7961 983.038 94.2841C978.222 99.6601 975.814 107.052 975.814 116.46C975.814 125.756 978.222 133.148 983.038 138.636C987.854 144.012 994.518 146.7 1003.03 146.7Z" fill="url(#paint0_linear_1877_1605)" fill-opacity="0.3"/>
<path d="M153.464 162.1L116.336 214.012V162.1H83.408V280.54H116.336V229.468L153.128 280.54H191.096L147.584 223.084L193.28 162.1H153.464ZM253.69 160.924C242.602 160.924 232.41 163.5 223.114 168.652C213.818 173.916 206.426 181.14 200.938 190.324C195.562 199.62 192.874 210.092 192.874 221.74C192.874 233.388 195.562 243.804 200.938 252.988C206.426 262.284 213.818 269.508 223.114 274.66C232.41 279.812 242.602 282.388 253.69 282.388C264.89 282.388 275.082 279.812 284.266 274.66C293.562 269.508 300.898 262.284 306.274 252.988C311.65 243.804 314.338 233.388 314.338 221.74C314.338 210.092 311.65 199.62 306.274 190.324C300.898 181.14 293.562 173.916 284.266 168.652C274.97 163.5 264.778 160.924 253.69 160.924ZM253.69 191.5C262.09 191.5 268.698 194.244 273.514 199.732C278.442 205.22 280.906 212.556 280.906 221.74C280.906 231.148 278.442 238.54 273.514 243.916C268.698 249.404 262.09 252.148 253.69 252.148C245.178 252.148 238.514 249.404 233.698 243.916C228.882 238.54 226.474 231.148 226.474 221.74C226.474 212.444 228.882 205.052 233.698 199.564C238.514 194.188 245.178 191.5 253.69 191.5ZM353.669 280.54V162.1H320.741V280.54H353.669ZM420.804 160.924C409.716 160.924 399.524 163.5 390.228 168.652C380.932 173.916 373.54 181.14 368.052 190.324C362.676 199.62 359.988 210.092 359.988 221.74C359.988 233.388 362.676 243.804 368.052 252.988C373.54 262.284 380.932 269.508 390.228 274.66C399.524 279.812 409.716 282.388 420.804 282.388C432.004 282.388 442.196 279.812 451.38 274.66C460.676 269.508 468.012 262.284 473.388 252.988C478.764 243.804 481.452 233.388 481.452 221.74C481.452 210.092 478.764 199.62 473.388 190.324C468.012 181.14 460.676 173.916 451.38 168.652C442.084 163.5 431.892 160.924 420.804 160.924ZM420.804 191.5C429.204 191.5 435.812 194.244 440.628 199.732C445.556 205.22 448.02 212.556 448.02 221.74C448.02 231.148 445.556 238.54 440.628 243.916C435.812 249.404 429.204 252.148 420.804 252.148C412.292 252.148 405.628 249.404 400.812 243.916C395.996 238.54 393.588 231.148 393.588 221.74C393.588 212.444 395.996 205.052 400.812 199.564C405.628 194.188 412.292 191.5 420.804 191.5ZM532.543 160.924C518.767 160.924 507.455 164.172 498.607 170.668C489.759 177.276 484.999 186.684 484.327 198.892H519.439C519.775 194.748 521.007 191.724 523.135 189.82C525.263 187.916 528.007 186.964 531.367 186.964C534.391 186.964 536.855 187.692 538.759 189.148C540.775 190.716 541.783 192.844 541.783 195.532C541.783 199.004 540.159 201.692 536.911 203.596C533.663 205.5 528.399 207.628 521.119 209.98C513.391 212.556 507.119 215.02 502.303 217.372C497.599 219.836 493.455 223.364 489.871 227.956C486.399 232.66 484.663 238.764 484.663 246.268C484.663 253.884 486.567 260.38 490.375 265.756C494.183 271.244 499.447 275.388 506.167 278.188C512.887 280.988 520.503 282.388 529.015 282.388C542.791 282.388 553.767 279.14 561.943 272.644C570.231 266.26 574.655 257.244 575.215 245.596H539.431C539.319 249.18 538.199 251.868 536.071 253.66C534.055 255.452 531.423 256.348 528.175 256.348C525.711 256.348 523.695 255.62 522.127 254.164C520.559 252.708 519.775 250.636 519.775 247.948C519.775 245.708 520.615 243.748 522.295 242.068C524.087 240.5 526.271 239.1 528.847 237.868C531.423 236.748 535.231 235.292 540.271 233.5C547.775 230.924 553.935 228.348 558.751 225.772C563.679 223.308 567.879 219.78 571.351 215.188C574.935 210.708 576.727 204.996 576.727 198.052C576.727 190.996 574.935 184.668 571.351 179.068C567.879 173.468 562.783 169.044 556.063 165.796C549.455 162.548 541.615 160.924 532.543 160.924ZM672.843 280.54V254.332H641.259V162.1H608.331V254.332H577.083V280.54H672.843ZM708.881 280.54V211.828C708.881 205.444 710.337 200.516 713.249 197.044C716.273 193.572 720.809 191.836 726.857 191.836C732.905 191.836 737.441 193.572 740.465 197.044C743.601 200.628 745.169 205.556 745.169 211.828V280.54H778.097V211.828C778.097 200.964 775.801 191.668 771.209 183.94C766.617 176.324 760.345 170.556 752.393 166.636C744.553 162.828 735.817 160.924 726.185 160.924C716.553 160.924 707.929 162.828 700.313 166.636C692.809 170.556 686.873 176.324 682.505 183.94C678.249 191.556 676.121 200.852 676.121 211.828V280.54H708.881ZM834.699 280.54C847.131 280.54 857.995 278.02 867.291 272.98C876.699 268.052 883.923 261.108 888.963 252.148C894.003 243.188 896.523 232.94 896.523 221.404C896.523 209.98 893.947 199.788 888.795 190.828C883.755 181.868 876.531 174.812 867.123 169.66C857.827 164.62 847.019 162.1 834.699 162.1H787.827V280.54H834.699ZM832.179 191.164C841.811 191.164 849.371 193.796 854.859 199.06C860.347 204.324 863.091 211.772 863.091 221.404C863.091 231.148 860.347 238.652 854.859 243.916C849.371 249.292 841.811 251.98 832.179 251.98H820.755V191.164H832.179ZM935.894 280.54V162.1H902.966V280.54H935.894ZM1003.03 160.924C991.942 160.924 981.75 163.5 972.454 168.652C963.158 173.916 955.766 181.14 950.278 190.324C944.902 199.62 942.214 210.092 942.214 221.74C942.214 233.388 944.902 243.804 950.278 252.988C955.766 262.284 963.158 269.508 972.454 274.66C981.75 279.812 991.942 282.388 1003.03 282.388C1014.23 282.388 1024.42 279.812 1033.61 274.66C1042.9 269.508 1050.24 262.284 1055.61 252.988C1060.99 243.804 1063.68 233.388 1063.68 221.74C1063.68 210.092 1060.99 199.62 1055.61 190.324C1050.24 181.14 1042.9 173.916 1033.61 168.652C1024.31 163.5 1014.12 160.924 1003.03 160.924ZM1003.03 191.5C1011.43 191.5 1018.04 194.244 1022.85 199.732C1027.78 205.22 1030.25 212.556 1030.25 221.74C1030.25 231.148 1027.78 238.54 1022.85 243.916C1018.04 249.404 1011.43 252.148 1003.03 252.148C994.518 252.148 987.854 249.404 983.038 243.916C978.222 238.54 975.814 231.148 975.814 221.74C975.814 212.444 978.222 205.052 983.038 199.564C987.854 194.188 994.518 191.5 1003.03 191.5Z" fill="url(#paint1_linear_1877_1605)" fill-opacity="0.05"/>
<g opacity="0.6">
<path d="M14.3675 3.66183L17.6241 6.47877L21.8824 5.84023L19.0655 9.09684L19.704 13.3551L16.4474 10.5382L12.1891 11.1767L15.0061 7.92011L14.3675 3.66183Z" fill="white"/>
<path d="M2.24462 18.0402L4.40487 18.5577L6.20394 17.2547L5.68641 19.4149L6.98944 21.214L4.82919 20.6965L3.03012 21.9995L3.54766 19.8393L2.24462 18.0402Z" fill="white" fill-opacity="0.4"/>
<path d="M30.4092 1.18231L31.7291 2.09751L33.283 1.69126L32.3678 3.01117L32.774 4.5651L31.4541 3.6499L29.9002 4.05614L30.8154 2.73624L30.4092 1.18231Z" fill="white" fill-opacity="0.4"/>
<path d="M42.0503 8.77899L43.3702 9.69419L44.9241 9.28794L44.0089 10.6078L44.4152 12.1618L43.0953 11.2466L41.5413 11.6528L42.4565 10.3329L42.0503 8.77899Z" fill="white" fill-opacity="0.2"/>
</g>
<path opacity="0.1" d="M13.7098 282.024L16.9664 279.207L21.2247 279.845L18.4078 276.589L19.0463 272.33L15.7897 275.147L11.5314 274.509L14.3484 277.765L13.7098 282.024Z" fill="#FFBF00"/>
<path opacity="0.1" d="M1.58691 267.646L3.74716 267.128L5.54622 268.431L5.02869 266.271L6.33172 264.472L4.17147 264.99L2.37241 263.687L2.88994 265.847L1.58691 267.646Z" fill="#FFBF00" fill-opacity="0.8"/>
<path opacity="0.1" d="M29.7515 284.504L31.0714 283.589L32.6253 283.995L31.7101 282.675L32.1163 281.121L30.7964 282.036L29.2425 281.63L30.1577 282.95L29.7515 284.504Z" fill="#FFBF00" fill-opacity="0.8"/>
<path opacity="0.1" d="M41.3926 276.907L42.7125 275.992L44.2664 276.398L43.3512 275.078L43.7574 273.524L42.4375 274.439L40.8836 274.033L41.7988 275.353L41.3926 276.907Z" fill="#FFBF00" fill-opacity="0.5"/>
<defs>
<linearGradient id="paint0_linear_1877_1605" x1="572" y1="-139.5" x2="572" y2="169.1" gradientUnits="userSpaceOnUse">
<stop offset="0.285546" stop-color="white" stop-opacity="0.5"/>
<stop offset="1" stop-color="#121212"/>
</linearGradient>
<linearGradient id="paint1_linear_1877_1605" x1="572" y1="515.6" x2="572" y2="169.1" gradientUnits="userSpaceOnUse">
<stop offset="0.484" stop-color="white" stop-opacity="0.5"/>
<stop offset="1" stop-color="#121212"/>
</linearGradient>
</defs>
</svg>
