<svg width="1144" height="286" viewBox="0 0 1144 286" fill="none" xmlns="http://www.w3.org/2000/svg">
<path d="M108.464 177.099L71.336 125.187V177.099H38.408V58.6591H71.336V109.731L108.128 58.6591H146.096L102.584 116.115L148.28 177.099H108.464ZM208.69 178.275C197.602 178.275 187.41 175.699 178.114 170.547C168.818 165.283 161.426 158.059 155.938 148.875C150.562 139.579 147.874 129.107 147.874 117.459C147.874 105.811 150.562 95.3951 155.938 86.2111C161.426 76.9151 168.818 69.6911 178.114 64.5391C187.41 59.3871 197.602 56.8111 208.69 56.8111C219.89 56.8111 230.082 59.3871 239.266 64.5391C248.562 69.6911 255.898 76.9151 261.274 86.2111C266.65 95.3951 269.338 105.811 269.338 117.459C269.338 129.107 266.65 139.579 261.274 148.875C255.898 158.059 248.562 165.283 239.266 170.547C229.97 175.699 219.778 178.275 208.69 178.275ZM208.69 147.699C217.09 147.699 223.698 144.955 228.514 139.467C233.442 133.979 235.906 126.643 235.906 117.459C235.906 108.051 233.442 100.659 228.514 95.2831C223.698 89.7951 217.09 87.0511 208.69 87.0511C200.178 87.0511 193.514 89.7951 188.698 95.2831C183.882 100.659 181.474 108.051 181.474 117.459C181.474 126.755 183.882 134.147 188.698 139.635C193.514 145.011 200.178 147.699 208.69 147.699ZM308.669 58.6591V177.099H275.741V58.6591H308.669ZM375.804 178.275C364.716 178.275 354.524 175.699 345.228 170.547C335.932 165.283 328.54 158.059 323.052 148.875C317.676 139.579 314.988 129.107 314.988 117.459C314.988 105.811 317.676 95.3951 323.052 86.2111C328.54 76.9151 335.932 69.6911 345.228 64.5391C354.524 59.3871 364.716 56.8111 375.804 56.8111C387.004 56.8111 397.196 59.3871 406.38 64.5391C415.676 69.6911 423.012 76.9151 428.388 86.2111C433.764 95.3951 436.452 105.811 436.452 117.459C436.452 129.107 433.764 139.579 428.388 148.875C423.012 158.059 415.676 165.283 406.38 170.547C397.084 175.699 386.892 178.275 375.804 178.275ZM375.804 147.699C384.204 147.699 390.812 144.955 395.628 139.467C400.556 133.979 403.02 126.643 403.02 117.459C403.02 108.051 400.556 100.659 395.628 95.2831C390.812 89.7951 384.204 87.0511 375.804 87.0511C367.292 87.0511 360.628 89.7951 355.812 95.2831C350.996 100.659 348.588 108.051 348.588 117.459C348.588 126.755 350.996 134.147 355.812 139.635C360.628 145.011 367.292 147.699 375.804 147.699ZM487.543 178.275C473.767 178.275 462.455 175.027 453.607 168.531C444.759 161.923 439.999 152.515 439.327 140.307H474.439C474.775 144.451 476.007 147.475 478.135 149.379C480.263 151.283 483.007 152.235 486.367 152.235C489.391 152.235 491.855 151.507 493.759 150.051C495.775 148.483 496.783 146.355 496.783 143.667C496.783 140.195 495.159 137.507 491.911 135.603C488.663 133.699 483.399 131.571 476.119 129.219C468.391 126.643 462.119 124.179 457.303 121.827C452.599 119.363 448.455 115.835 444.871 111.243C441.399 106.539 439.663 100.435 439.663 92.9311C439.663 85.3151 441.567 78.8191 445.375 73.4431C449.183 67.9551 454.447 63.8111 461.167 61.0111C467.887 58.2111 475.503 56.8111 484.015 56.8111C497.791 56.8111 508.767 60.0591 516.943 66.5551C525.231 72.9391 529.655 81.9551 530.215 93.6031H494.431C494.319 90.0191 493.199 87.3311 491.071 85.5391C489.055 83.7471 486.423 82.8511 483.175 82.8511C480.711 82.8511 478.695 83.5791 477.127 85.0351C475.559 86.4911 474.775 88.5631 474.775 91.2511C474.775 93.4911 475.615 95.4511 477.295 97.1311C479.087 98.6991 481.271 100.099 483.847 101.331C486.423 102.451 490.231 103.907 495.271 105.699C502.775 108.275 508.935 110.851 513.751 113.427C518.679 115.891 522.879 119.419 526.351 124.011C529.935 128.491 531.727 134.203 531.727 141.147C531.727 148.203 529.935 154.531 526.351 160.131C522.879 165.731 517.783 170.155 511.063 173.403C504.455 176.651 496.615 178.275 487.543 178.275ZM607.079 178.275C593.303 178.275 581.991 175.027 573.143 168.531C564.295 161.923 559.535 152.515 558.863 140.307H593.975C594.311 144.451 595.543 147.475 597.671 149.379C599.799 151.283 602.543 152.235 605.903 152.235C608.927 152.235 611.391 151.507 613.295 150.051C615.311 148.483 616.319 146.355 616.319 143.667C616.319 140.195 614.695 137.507 611.447 135.603C608.199 133.699 602.935 131.571 595.655 129.219C587.927 126.643 581.655 124.179 576.839 121.827C572.135 119.363 567.991 115.835 564.407 111.243C560.935 106.539 559.199 100.435 559.199 92.9311C559.199 85.3151 561.103 78.8191 564.911 73.4431C568.719 67.9551 573.983 63.8111 580.703 61.0111C587.423 58.2111 595.039 56.8111 603.551 56.8111C617.327 56.8111 628.303 60.0591 636.479 66.5551C644.767 72.9391 649.191 81.9551 649.751 93.6031H613.967C613.855 90.0191 612.735 87.3311 610.607 85.5391C608.591 83.7471 605.959 82.8511 602.711 82.8511C600.247 82.8511 598.231 83.5791 596.663 85.0351C595.095 86.4911 594.311 88.5631 594.311 91.2511C594.311 93.4911 595.151 95.4511 596.831 97.1311C598.623 98.6991 600.807 100.099 603.383 101.331C605.959 102.451 609.767 103.907 614.807 105.699C622.311 108.275 628.471 110.851 633.287 113.427C638.215 115.891 642.415 119.419 645.887 124.011C649.471 128.491 651.263 134.203 651.263 141.147C651.263 148.203 649.471 154.531 645.887 160.131C642.415 165.731 637.319 170.155 630.599 173.403C623.991 176.651 616.151 178.275 607.079 178.275ZM747.379 58.6591V84.8671H715.795V177.099H682.867V84.8671H651.619V58.6591H747.379ZM783.417 58.6591V127.371C783.417 133.755 784.873 138.683 787.785 142.155C790.809 145.627 795.345 147.363 801.393 147.363C807.441 147.363 811.977 145.627 815.001 142.155C818.137 138.571 819.705 133.643 819.705 127.371V58.6591H852.633V127.371C852.633 138.235 850.337 147.531 845.745 155.259C841.153 162.875 834.881 168.643 826.929 172.563C819.089 176.371 810.353 178.275 800.721 178.275C791.089 178.275 782.465 176.371 774.849 172.563C767.345 168.643 761.409 162.875 757.041 155.259C752.785 147.643 750.657 138.347 750.657 127.371V58.6591H783.417ZM909.235 58.6591C921.667 58.6591 932.531 61.1791 941.827 66.2191C951.235 71.1471 958.459 78.0911 963.499 87.0511C968.539 96.0111 971.059 106.259 971.059 117.795C971.059 129.219 968.483 139.411 963.331 148.371C958.291 157.331 951.067 164.387 941.659 169.539C932.363 174.579 921.555 177.099 909.235 177.099H862.363V58.6591H909.235ZM906.715 148.035C916.347 148.035 923.907 145.403 929.395 140.139C934.883 134.875 937.627 127.427 937.627 117.795C937.627 108.051 934.883 100.547 929.395 95.2831C923.907 89.9071 916.347 87.2191 906.715 87.2191H895.291V148.035H906.715ZM1010.43 58.6591V177.099H977.502V58.6591H1010.43ZM1077.57 178.275C1066.48 178.275 1056.29 175.699 1046.99 170.547C1037.69 165.283 1030.3 158.059 1024.81 148.875C1019.44 139.579 1016.75 129.107 1016.75 117.459C1016.75 105.811 1019.44 95.3951 1024.81 86.2111C1030.3 76.9151 1037.69 69.6911 1046.99 64.5391C1056.29 59.3871 1066.48 56.8111 1077.57 56.8111C1088.77 56.8111 1098.96 59.3871 1108.14 64.5391C1117.44 69.6911 1124.77 76.9151 1130.15 86.2111C1135.53 95.3951 1138.21 105.811 1138.21 117.459C1138.21 129.107 1135.53 139.579 1130.15 148.875C1124.77 158.059 1117.44 165.283 1108.14 170.547C1098.85 175.699 1088.65 178.275 1077.57 178.275ZM1077.57 147.699C1085.97 147.699 1092.57 144.955 1097.39 139.467C1102.32 133.979 1104.78 126.643 1104.78 117.459C1104.78 108.051 1102.32 100.659 1097.39 95.2831C1092.57 89.7951 1085.97 87.0511 1077.57 87.0511C1069.05 87.0511 1062.39 89.7951 1057.57 95.2831C1052.76 100.659 1050.35 108.051 1050.35 117.459C1050.35 126.755 1052.76 134.147 1057.57 139.635C1062.39 145.011 1069.05 147.699 1077.57 147.699Z" fill="url(#paint0_linear_693_2604)" fill-opacity="0.8"/>
<path d="M108.464 163.099L71.336 215.011V163.099H38.408V281.539H71.336V230.467L108.128 281.539H146.096L102.584 224.083L148.28 163.099H108.464ZM208.69 161.923C197.602 161.923 187.41 164.499 178.114 169.651C168.818 174.915 161.426 182.139 155.938 191.323C150.562 200.619 147.874 211.091 147.874 222.739C147.874 234.387 150.562 244.803 155.938 253.987C161.426 263.283 168.818 270.507 178.114 275.659C187.41 280.811 197.602 283.387 208.69 283.387C219.89 283.387 230.082 280.811 239.266 275.659C248.562 270.507 255.898 263.283 261.274 253.987C266.65 244.803 269.338 234.387 269.338 222.739C269.338 211.091 266.65 200.619 261.274 191.323C255.898 182.139 248.562 174.915 239.266 169.651C229.97 164.499 219.778 161.923 208.69 161.923ZM208.69 192.499C217.09 192.499 223.698 195.243 228.514 200.731C233.442 206.219 235.906 213.555 235.906 222.739C235.906 232.147 233.442 239.539 228.514 244.915C223.698 250.403 217.09 253.147 208.69 253.147C200.178 253.147 193.514 250.403 188.698 244.915C183.882 239.539 181.474 232.147 181.474 222.739C181.474 213.443 183.882 206.051 188.698 200.563C193.514 195.187 200.178 192.499 208.69 192.499ZM308.669 281.539V163.099H275.741V281.539H308.669ZM375.804 161.923C364.716 161.923 354.524 164.499 345.228 169.651C335.932 174.915 328.54 182.139 323.052 191.323C317.676 200.619 314.988 211.091 314.988 222.739C314.988 234.387 317.676 244.803 323.052 253.987C328.54 263.283 335.932 270.507 345.228 275.659C354.524 280.811 364.716 283.387 375.804 283.387C387.004 283.387 397.196 280.811 406.38 275.659C415.676 270.507 423.012 263.283 428.388 253.987C433.764 244.803 436.452 234.387 436.452 222.739C436.452 211.091 433.764 200.619 428.388 191.323C423.012 182.139 415.676 174.915 406.38 169.651C397.084 164.499 386.892 161.923 375.804 161.923ZM375.804 192.499C384.204 192.499 390.812 195.243 395.628 200.731C400.556 206.219 403.02 213.555 403.02 222.739C403.02 232.147 400.556 239.539 395.628 244.915C390.812 250.403 384.204 253.147 375.804 253.147C367.292 253.147 360.628 250.403 355.812 244.915C350.996 239.539 348.588 232.147 348.588 222.739C348.588 213.443 350.996 206.051 355.812 200.563C360.628 195.187 367.292 192.499 375.804 192.499ZM487.543 161.923C473.767 161.923 462.455 165.171 453.607 171.667C444.759 178.275 439.999 187.683 439.327 199.891H474.439C474.775 195.747 476.007 192.723 478.135 190.819C480.263 188.915 483.007 187.963 486.367 187.963C489.391 187.963 491.855 188.691 493.759 190.147C495.775 191.715 496.783 193.843 496.783 196.531C496.783 200.003 495.159 202.691 491.911 204.595C488.663 206.499 483.399 208.627 476.119 210.979C468.391 213.555 462.119 216.019 457.303 218.371C452.599 220.835 448.455 224.363 444.871 228.955C441.399 233.659 439.663 239.763 439.663 247.267C439.663 254.883 441.567 261.379 445.375 266.755C449.183 272.243 454.447 276.387 461.167 279.187C467.887 281.987 475.503 283.387 484.015 283.387C497.791 283.387 508.767 280.139 516.943 273.643C525.231 267.259 529.655 258.243 530.215 246.595H494.431C494.319 250.179 493.199 252.867 491.071 254.659C489.055 256.451 486.423 257.347 483.175 257.347C480.711 257.347 478.695 256.619 477.127 255.163C475.559 253.707 474.775 251.635 474.775 248.947C474.775 246.707 475.615 244.747 477.295 243.067C479.087 241.499 481.271 240.099 483.847 238.867C486.423 237.747 490.231 236.291 495.271 234.499C502.775 231.923 508.935 229.347 513.751 226.771C518.679 224.307 522.879 220.779 526.351 216.187C529.935 211.707 531.727 205.995 531.727 199.051C531.727 191.995 529.935 185.667 526.351 180.067C522.879 174.467 517.783 170.043 511.063 166.795C504.455 163.547 496.615 161.923 487.543 161.923ZM607.079 161.923C593.303 161.923 581.991 165.171 573.143 171.667C564.295 178.275 559.535 187.683 558.863 199.891H593.975C594.311 195.747 595.543 192.723 597.671 190.819C599.799 188.915 602.543 187.963 605.903 187.963C608.927 187.963 611.391 188.691 613.295 190.147C615.311 191.715 616.319 193.843 616.319 196.531C616.319 200.003 614.695 202.691 611.447 204.595C608.199 206.499 602.935 208.627 595.655 210.979C587.927 213.555 581.655 216.019 576.839 218.371C572.135 220.835 567.991 224.363 564.407 228.955C560.935 233.659 559.199 239.763 559.199 247.267C559.199 254.883 561.103 261.379 564.911 266.755C568.719 272.243 573.983 276.387 580.703 279.187C587.423 281.987 595.039 283.387 603.551 283.387C617.327 283.387 628.303 280.139 636.479 273.643C644.767 267.259 649.191 258.243 649.751 246.595H613.967C613.855 250.179 612.735 252.867 610.607 254.659C608.591 256.451 605.959 257.347 602.711 257.347C600.247 257.347 598.231 256.619 596.663 255.163C595.095 253.707 594.311 251.635 594.311 248.947C594.311 246.707 595.151 244.747 596.831 243.067C598.623 241.499 600.807 240.099 603.383 238.867C605.959 237.747 609.767 236.291 614.807 234.499C622.311 231.923 628.471 229.347 633.287 226.771C638.215 224.307 642.415 220.779 645.887 216.187C649.471 211.707 651.263 205.995 651.263 199.051C651.263 191.995 649.471 185.667 645.887 180.067C642.415 174.467 637.319 170.043 630.599 166.795C623.991 163.547 616.151 161.923 607.079 161.923ZM747.379 281.539V255.331H715.795V163.099H682.867V255.331H651.619V281.539H747.379ZM783.417 281.539V212.827C783.417 206.443 784.873 201.515 787.785 198.043C790.809 194.571 795.345 192.835 801.393 192.835C807.441 192.835 811.977 194.571 815.001 198.043C818.137 201.627 819.705 206.555 819.705 212.827V281.539H852.633V212.827C852.633 201.963 850.337 192.667 845.745 184.939C841.153 177.323 834.881 171.555 826.929 167.635C819.089 163.827 810.353 161.923 800.721 161.923C791.089 161.923 782.465 163.827 774.849 167.635C767.345 171.555 761.409 177.323 757.041 184.939C752.785 192.555 750.657 201.851 750.657 212.827V281.539H783.417ZM909.235 281.539C921.667 281.539 932.531 279.019 941.827 273.979C951.235 269.051 958.459 262.107 963.499 253.147C968.539 244.187 971.059 233.939 971.059 222.403C971.059 210.979 968.483 200.787 963.331 191.827C958.291 182.867 951.067 175.811 941.659 170.659C932.363 165.619 921.555 163.099 909.235 163.099H862.363V281.539H909.235ZM906.715 192.163C916.347 192.163 923.907 194.795 929.395 200.059C934.883 205.323 937.627 212.771 937.627 222.403C937.627 232.147 934.883 239.651 929.395 244.915C923.907 250.291 916.347 252.979 906.715 252.979H895.291V192.163H906.715ZM1010.43 281.539V163.099H977.502V281.539H1010.43ZM1077.57 161.923C1066.48 161.923 1056.29 164.499 1046.99 169.651C1037.69 174.915 1030.3 182.139 1024.81 191.323C1019.44 200.619 1016.75 211.091 1016.75 222.739C1016.75 234.387 1019.44 244.803 1024.81 253.987C1030.3 263.283 1037.69 270.507 1046.99 275.659C1056.29 280.811 1066.48 283.387 1077.57 283.387C1088.77 283.387 1098.96 280.811 1108.14 275.659C1117.44 270.507 1124.77 263.283 1130.15 253.987C1135.53 244.803 1138.21 234.387 1138.21 222.739C1138.21 211.091 1135.53 200.619 1130.15 191.323C1124.77 182.139 1117.44 174.915 1108.14 169.651C1098.85 164.499 1088.65 161.923 1077.57 161.923ZM1077.57 192.499C1085.97 192.499 1092.57 195.243 1097.39 200.731C1102.32 206.219 1104.78 213.555 1104.78 222.739C1104.78 232.147 1102.32 239.539 1097.39 244.915C1092.57 250.403 1085.97 253.147 1077.57 253.147C1069.05 253.147 1062.39 250.403 1057.57 244.915C1052.76 239.539 1050.35 232.147 1050.35 222.739C1050.35 213.443 1052.76 206.051 1057.57 200.563C1062.39 195.187 1069.05 192.499 1077.57 192.499Z" fill="url(#paint1_linear_693_2604)" fill-opacity="0.1"/>
<path d="M14.3676 3.66134L17.6243 6.47829L21.8825 5.83974L19.0656 9.09635L19.7041 13.3546L16.4475 10.5377L12.1892 11.1762L15.0062 7.91962L14.3676 3.66134Z" fill="#FFBF00"/>
<path d="M2.24462 18.0402L4.40487 18.5577L6.20394 17.2547L5.68641 19.4149L6.98944 21.214L4.82919 20.6965L3.03012 21.9995L3.54766 19.8393L2.24462 18.0402Z" fill="#FFBF00" fill-opacity="0.4"/>
<path d="M30.4092 1.18231L31.7291 2.09751L33.283 1.69126L32.3678 3.01117L32.774 4.5651L31.4541 3.6499L29.9002 4.05614L30.8154 2.73624L30.4092 1.18231Z" fill="#FFBF00" fill-opacity="0.4"/>
<path d="M42.0503 8.77899L43.3702 9.69419L44.9241 9.28794L44.0089 10.6078L44.4152 12.1618L43.0953 11.2466L41.5413 11.6528L42.4565 10.3329L42.0503 8.77899Z" fill="#FFBF00" fill-opacity="0.2"/>
<path opacity="0.1" d="M13.7099 282.023L16.9665 279.206L21.2248 279.845L18.4079 276.588L19.0464 272.33L15.7898 275.147L11.5315 274.508L14.3485 277.765L13.7099 282.023Z" fill="#FFBF00"/>
<path opacity="0.1" d="M1.58691 267.645L3.74716 267.128L5.54622 268.431L5.02869 266.271L6.33172 264.472L4.17147 264.989L2.37241 263.686L2.88994 265.846L1.58691 267.645Z" fill="#FFBF00" fill-opacity="0.4"/>
<path opacity="0.1" d="M29.7515 284.503L31.0714 283.588L32.6253 283.994L31.7101 282.674L32.1163 281.12L30.7964 282.036L29.2425 281.629L30.1577 282.949L29.7515 284.503Z" fill="#FFBF00" fill-opacity="0.4"/>
<path opacity="0.1" d="M41.3926 276.907L42.7125 275.991L44.2664 276.398L43.3512 275.078L43.7574 273.524L42.4375 274.439L40.8836 274.033L41.7988 275.353L41.3926 276.907Z" fill="#FFBF00" fill-opacity="0.2"/>
<defs>
<linearGradient id="paint0_linear_693_2604" x1="586.5" y1="-95.4009" x2="586.5" y2="170.099" gradientUnits="userSpaceOnUse">
<stop offset="0.484" stop-color="#FFBF00" stop-opacity="0.5"/>
<stop offset="1" stop-color="#121212"/>
</linearGradient>
<linearGradient id="paint1_linear_693_2604" x1="586.5" y1="516.599" x2="586.5" y2="170.099" gradientUnits="userSpaceOnUse">
<stop offset="0.484" stop-color="#FFBF00" stop-opacity="0.5"/>
<stop offset="1" stop-color="#121212"/>
</linearGradient>
</defs>
</svg>
