<svg width="1070" height="286" viewBox="0 0 1070 286" fill="none" xmlns="http://www.w3.org/2000/svg">
<path d="M153.464 177.099L116.336 125.187V177.099H83.408V58.6591H116.336V109.731L153.128 58.6591H191.096L147.584 116.115L193.28 177.099H153.464ZM253.69 178.275C242.602 178.275 232.41 175.699 223.114 170.547C213.818 165.283 206.426 158.059 200.938 148.875C195.562 139.579 192.874 129.107 192.874 117.459C192.874 105.811 195.562 95.3951 200.938 86.2111C206.426 76.9151 213.818 69.6911 223.114 64.5391C232.41 59.3871 242.602 56.8111 253.69 56.8111C264.89 56.8111 275.082 59.3871 284.266 64.5391C293.562 69.6911 300.898 76.9151 306.274 86.2111C311.65 95.3951 314.338 105.811 314.338 117.459C314.338 129.107 311.65 139.579 306.274 148.875C300.898 158.059 293.562 165.283 284.266 170.547C274.97 175.699 264.778 178.275 253.69 178.275ZM253.69 147.699C262.09 147.699 268.698 144.955 273.514 139.467C278.442 133.979 280.906 126.643 280.906 117.459C280.906 108.051 278.442 100.659 273.514 95.2831C268.698 89.7951 262.09 87.0511 253.69 87.0511C245.178 87.0511 238.514 89.7951 233.698 95.2831C228.882 100.659 226.474 108.051 226.474 117.459C226.474 126.755 228.882 134.147 233.698 139.635C238.514 145.011 245.178 147.699 253.69 147.699ZM353.669 58.6591V177.099H320.741V58.6591H353.669ZM420.804 178.275C409.716 178.275 399.524 175.699 390.228 170.547C380.932 165.283 373.54 158.059 368.052 148.875C362.676 139.579 359.988 129.107 359.988 117.459C359.988 105.811 362.676 95.3951 368.052 86.2111C373.54 76.9151 380.932 69.6911 390.228 64.5391C399.524 59.3871 409.716 56.8111 420.804 56.8111C432.004 56.8111 442.196 59.3871 451.38 64.5391C460.676 69.6911 468.012 76.9151 473.388 86.2111C478.764 95.3951 481.452 105.811 481.452 117.459C481.452 129.107 478.764 139.579 473.388 148.875C468.012 158.059 460.676 165.283 451.38 170.547C442.084 175.699 431.892 178.275 420.804 178.275ZM420.804 147.699C429.204 147.699 435.812 144.955 440.628 139.467C445.556 133.979 448.02 126.643 448.02 117.459C448.02 108.051 445.556 100.659 440.628 95.2831C435.812 89.7951 429.204 87.0511 420.804 87.0511C412.292 87.0511 405.628 89.7951 400.812 95.2831C395.996 100.659 393.588 108.051 393.588 117.459C393.588 126.755 395.996 134.147 400.812 139.635C405.628 145.011 412.292 147.699 420.804 147.699ZM532.543 178.275C518.767 178.275 507.455 175.027 498.607 168.531C489.759 161.923 484.999 152.515 484.327 140.307H519.439C519.775 144.451 521.007 147.475 523.135 149.379C525.263 151.283 528.007 152.235 531.367 152.235C534.391 152.235 536.855 151.507 538.759 150.051C540.775 148.483 541.783 146.355 541.783 143.667C541.783 140.195 540.159 137.507 536.911 135.603C533.663 133.699 528.399 131.571 521.119 129.219C513.391 126.643 507.119 124.179 502.303 121.827C497.599 119.363 493.455 115.835 489.871 111.243C486.399 106.539 484.663 100.435 484.663 92.9311C484.663 85.3151 486.567 78.8191 490.375 73.4431C494.183 67.9551 499.447 63.8111 506.167 61.0111C512.887 58.2111 520.503 56.8111 529.015 56.8111C542.791 56.8111 553.767 60.0591 561.943 66.5551C570.231 72.9391 574.655 81.9551 575.215 93.6031H539.431C539.319 90.0191 538.199 87.3311 536.071 85.5391C534.055 83.7471 531.423 82.8511 528.175 82.8511C525.711 82.8511 523.695 83.5791 522.127 85.0351C520.559 86.4911 519.775 88.5631 519.775 91.2511C519.775 93.4911 520.615 95.4511 522.295 97.1311C524.087 98.6991 526.271 100.099 528.847 101.331C531.423 102.451 535.231 103.907 540.271 105.699C547.775 108.275 553.935 110.851 558.751 113.427C563.679 115.891 567.879 119.419 571.351 124.011C574.935 128.491 576.727 134.203 576.727 141.147C576.727 148.203 574.935 154.531 571.351 160.131C567.879 165.731 562.783 170.155 556.063 173.403C549.455 176.651 541.615 178.275 532.543 178.275ZM672.843 58.6591V84.8671H641.259V177.099H608.331V84.8671H577.083V58.6591H672.843ZM708.881 58.6591V127.371C708.881 133.755 710.337 138.683 713.249 142.155C716.273 145.627 720.809 147.363 726.857 147.363C732.905 147.363 737.441 145.627 740.465 142.155C743.601 138.571 745.169 133.643 745.169 127.371V58.6591H778.097V127.371C778.097 138.235 775.801 147.531 771.209 155.259C766.617 162.875 760.345 168.643 752.393 172.563C744.553 176.371 735.817 178.275 726.185 178.275C716.553 178.275 707.929 176.371 700.313 172.563C692.809 168.643 686.873 162.875 682.505 155.259C678.249 147.643 676.121 138.347 676.121 127.371V58.6591H708.881ZM834.699 58.6591C847.131 58.6591 857.995 61.1791 867.291 66.2191C876.699 71.1471 883.923 78.0911 888.963 87.0511C894.003 96.0111 896.523 106.259 896.523 117.795C896.523 129.219 893.947 139.411 888.795 148.371C883.755 157.331 876.531 164.387 867.123 169.539C857.827 174.579 847.019 177.099 834.699 177.099H787.827V58.6591H834.699ZM832.179 148.035C841.811 148.035 849.371 145.403 854.859 140.139C860.347 134.875 863.091 127.427 863.091 117.795C863.091 108.051 860.347 100.547 854.859 95.2831C849.371 89.9071 841.811 87.2191 832.179 87.2191H820.755V148.035H832.179ZM935.894 58.6591V177.099H902.966V58.6591H935.894ZM1003.03 178.275C991.942 178.275 981.75 175.699 972.454 170.547C963.158 165.283 955.766 158.059 950.278 148.875C944.902 139.579 942.214 129.107 942.214 117.459C942.214 105.811 944.902 95.3951 950.278 86.2111C955.766 76.9151 963.158 69.6911 972.454 64.5391C981.75 59.3871 991.942 56.8111 1003.03 56.8111C1014.23 56.8111 1024.42 59.3871 1033.61 64.5391C1042.9 69.6911 1050.24 76.9151 1055.61 86.2111C1060.99 95.3951 1063.68 105.811 1063.68 117.459C1063.68 129.107 1060.99 139.579 1055.61 148.875C1050.24 158.059 1042.9 165.283 1033.61 170.547C1024.31 175.699 1014.12 178.275 1003.03 178.275ZM1003.03 147.699C1011.43 147.699 1018.04 144.955 1022.85 139.467C1027.78 133.979 1030.25 126.643 1030.25 117.459C1030.25 108.051 1027.78 100.659 1022.85 95.2831C1018.04 89.7951 1011.43 87.0511 1003.03 87.0511C994.518 87.0511 987.854 89.7951 983.038 95.2831C978.222 100.659 975.814 108.051 975.814 117.459C975.814 126.755 978.222 134.147 983.038 139.635C987.854 145.011 994.518 147.699 1003.03 147.699Z" fill="url(#paint0_linear_693_2604)" fill-opacity="0.8"/>
<path d="M153.464 163.099L116.336 215.011V163.099H83.408V281.539H116.336V230.467L153.128 281.539H191.096L147.584 224.083L193.28 163.099H153.464ZM253.69 161.923C242.602 161.923 232.41 164.499 223.114 169.651C213.818 174.915 206.426 182.139 200.938 191.323C195.562 200.619 192.874 211.091 192.874 222.739C192.874 234.387 195.562 244.803 200.938 253.987C206.426 263.283 213.818 270.507 223.114 275.659C232.41 280.811 242.602 283.387 253.69 283.387C264.89 283.387 275.082 280.811 284.266 275.659C293.562 270.507 300.898 263.283 306.274 253.987C311.65 244.803 314.338 234.387 314.338 222.739C314.338 211.091 311.65 200.619 306.274 191.323C300.898 182.139 293.562 174.915 284.266 169.651C274.97 164.499 264.778 161.923 253.69 161.923ZM253.69 192.499C262.09 192.499 268.698 195.243 273.514 200.731C278.442 206.219 280.906 213.555 280.906 222.739C280.906 232.147 278.442 239.539 273.514 244.915C268.698 250.403 262.09 253.147 253.69 253.147C245.178 253.147 238.514 250.403 233.698 244.915C228.882 239.539 226.474 232.147 226.474 222.739C226.474 213.443 228.882 206.051 233.698 200.563C238.514 195.187 245.178 192.499 253.69 192.499ZM353.669 281.539V163.099H320.741V281.539H353.669ZM420.804 161.923C409.716 161.923 399.524 164.499 390.228 169.651C380.932 174.915 373.54 182.139 368.052 191.323C362.676 200.619 359.988 211.091 359.988 222.739C359.988 234.387 362.676 244.803 368.052 253.987C373.54 263.283 380.932 270.507 390.228 275.659C399.524 280.811 409.716 283.387 420.804 283.387C432.004 283.387 442.196 280.811 451.38 275.659C460.676 270.507 468.012 263.283 473.388 253.987C478.764 244.803 481.452 234.387 481.452 222.739C481.452 211.091 478.764 200.619 473.388 191.323C468.012 182.139 460.676 174.915 451.38 169.651C442.084 164.499 431.892 161.923 420.804 161.923ZM420.804 192.499C429.204 192.499 435.812 195.243 440.628 200.731C445.556 206.219 448.02 213.555 448.02 222.739C448.02 232.147 445.556 239.539 440.628 244.915C435.812 250.403 429.204 253.147 420.804 253.147C412.292 253.147 405.628 250.403 400.812 244.915C395.996 239.539 393.588 232.147 393.588 222.739C393.588 213.443 395.996 206.051 400.812 200.563C405.628 195.187 412.292 192.499 420.804 192.499ZM532.543 161.923C518.767 161.923 507.455 165.171 498.607 171.667C489.759 178.275 484.999 187.683 484.327 199.891H519.439C519.775 195.747 521.007 192.723 523.135 190.819C525.263 188.915 528.007 187.963 531.367 187.963C534.391 187.963 536.855 188.691 538.759 190.147C540.775 191.715 541.783 193.843 541.783 196.531C541.783 200.003 540.159 202.691 536.911 204.595C533.663 206.499 528.399 208.627 521.119 210.979C513.391 213.555 507.119 216.019 502.303 218.371C497.599 220.835 493.455 224.363 489.871 228.955C486.399 233.659 484.663 239.763 484.663 247.267C484.663 254.883 486.567 261.379 490.375 266.755C494.183 272.243 499.447 276.387 506.167 279.187C512.887 281.987 520.503 283.387 529.015 283.387C542.791 283.387 553.767 280.139 561.943 273.643C570.231 267.259 574.655 258.243 575.215 246.595H539.431C539.319 250.179 538.199 252.867 536.071 254.659C534.055 256.451 531.423 257.347 528.175 257.347C525.711 257.347 523.695 256.619 522.127 255.163C520.559 253.707 519.775 251.635 519.775 248.947C519.775 246.707 520.615 244.747 522.295 243.067C524.087 241.499 526.271 240.099 528.847 238.867C531.423 237.747 535.231 236.291 540.271 234.499C547.775 231.923 553.935 229.347 558.751 226.771C563.679 224.307 567.879 220.779 571.351 216.187C574.935 211.707 576.727 205.995 576.727 199.051C576.727 191.995 574.935 185.667 571.351 180.067C567.879 174.467 562.783 170.043 556.063 166.795C549.455 163.547 541.615 161.923 532.543 161.923ZM672.843 281.539V255.331H641.259V163.099H608.331V255.331H577.083V281.539H672.843ZM708.881 281.539V212.827C708.881 206.443 710.337 201.515 713.249 198.043C716.273 194.571 720.809 192.835 726.857 192.835C732.905 192.835 737.441 194.571 740.465 198.043C743.601 201.627 745.169 206.555 745.169 212.827V281.539H778.097V212.827C778.097 201.963 775.801 192.667 771.209 184.939C766.617 177.323 760.345 171.555 752.393 167.635C744.553 163.827 735.817 161.923 726.185 161.923C716.553 161.923 707.929 163.827 700.313 167.635C692.809 171.555 686.873 177.323 682.505 184.939C678.249 192.555 676.121 201.851 676.121 212.827V281.539H708.881ZM834.699 281.539C847.131 281.539 857.995 279.019 867.291 273.979C876.699 269.051 883.923 262.107 888.963 253.147C894.003 244.187 896.523 233.939 896.523 222.403C896.523 210.979 893.947 200.787 888.795 191.827C883.755 182.867 876.531 175.811 867.123 170.659C857.827 165.619 847.019 163.099 834.699 163.099H787.827V281.539H834.699ZM832.179 192.163C841.811 192.163 849.371 194.795 854.859 200.059C860.347 205.323 863.091 212.771 863.091 222.403C863.091 232.147 860.347 239.651 854.859 244.915C849.371 250.291 841.811 252.979 832.179 252.979H820.755V192.163H832.179ZM935.894 281.539V163.099H902.966V281.539H935.894ZM1003.03 161.923C991.942 161.923 981.75 164.499 972.454 169.651C963.158 174.915 955.766 182.139 950.278 191.323C944.902 200.619 942.214 211.091 942.214 222.739C942.214 234.387 944.902 244.803 950.278 253.987C955.766 263.283 963.158 270.507 972.454 275.659C981.75 280.811 991.942 283.387 1003.03 283.387C1014.23 283.387 1024.42 280.811 1033.61 275.659C1042.9 270.507 1050.24 263.283 1055.61 253.987C1060.99 244.803 1063.68 234.387 1063.68 222.739C1063.68 211.091 1060.99 200.619 1055.61 191.323C1050.24 182.139 1042.9 174.915 1033.61 169.651C1024.31 164.499 1014.12 161.923 1003.03 161.923ZM1003.03 192.499C1011.43 192.499 1018.04 195.243 1022.85 200.731C1027.78 206.219 1030.25 213.555 1030.25 222.739C1030.25 232.147 1027.78 239.539 1022.85 244.915C1018.04 250.403 1011.43 253.147 1003.03 253.147C994.518 253.147 987.854 250.403 983.038 244.915C978.222 239.539 975.814 232.147 975.814 222.739C975.814 213.443 978.222 206.051 983.038 200.563C987.854 195.187 994.518 192.499 1003.03 192.499Z" fill="url(#paint1_linear_693_2604)" fill-opacity="0.1"/>
<path d="M14.3676 3.66134L17.6243 6.47829L21.8825 5.83974L19.0656 9.09635L19.7041 13.3546L16.4475 10.5377L12.1892 11.1762L15.0062 7.91962L14.3676 3.66134Z" fill="#FFBF00"/>
<path d="M2.24462 18.0402L4.40487 18.5577L6.20394 17.2547L5.68641 19.4149L6.98944 21.214L4.82919 20.6965L3.03012 21.9995L3.54766 19.8393L2.24462 18.0402Z" fill="#FFBF00" fill-opacity="0.4"/>
<path d="M30.4092 1.18231L31.7291 2.09751L33.283 1.69126L32.3678 3.01117L32.774 4.5651L31.4541 3.6499L29.9002 4.05614L30.8154 2.73624L30.4092 1.18231Z" fill="#FFBF00" fill-opacity="0.4"/>
<path d="M42.0503 8.77899L43.3702 9.69419L44.9241 9.28794L44.0089 10.6078L44.4152 12.1618L43.0953 11.2466L41.5413 11.6528L42.4565 10.3329L42.0503 8.77899Z" fill="#FFBF00" fill-opacity="0.2"/>
<path opacity="0.1" d="M13.7099 282.023L16.9665 279.206L21.2248 279.845L18.4079 276.588L19.0464 272.33L15.7898 275.147L11.5315 274.508L14.3485 277.765L13.7099 282.023Z" fill="#FFBF00"/>
<path opacity="0.1" d="M1.58691 267.645L3.74716 267.128L5.54622 268.431L5.02869 266.271L6.33172 264.472L4.17147 264.989L2.37241 263.686L2.88994 265.846L1.58691 267.645Z" fill="#FFBF00" fill-opacity="0.4"/>
<path opacity="0.1" d="M29.7515 284.503L31.0714 283.588L32.6253 283.994L31.7101 282.674L32.1163 281.12L30.7964 282.036L29.2425 281.629L30.1577 282.949L29.7515 284.503Z" fill="#FFBF00" fill-opacity="0.4"/>
<path opacity="0.1" d="M41.3926 276.907L42.7125 275.991L44.2664 276.398L43.3512 275.078L43.7574 273.524L42.4375 274.439L40.8836 274.033L41.7988 275.353L41.3926 276.907Z" fill="#FFBF00" fill-opacity="0.2"/>
<defs>
<linearGradient id="paint0_linear_693_2604" x1="572" y1="-95.4009" x2="572" y2="170.099" gradientUnits="userSpaceOnUse">
<stop offset="0.484" stop-color="#FFBF00" stop-opacity="0.5"/>
<stop offset="1" stop-color="#121212"/>
</linearGradient>
<linearGradient id="paint1_linear_693_2604" x1="572" y1="516.599" x2="572" y2="170.099" gradientUnits="userSpaceOnUse">
<stop offset="0.484" stop-color="#FFBF00" stop-opacity="0.5"/>
<stop offset="1" stop-color="#121212"/>
</linearGradient>
</defs>
</svg>
