<svg width="25" height="25" viewBox="0 0 25 25" fill="none" xmlns="http://www.w3.org/2000/svg">
<path d="M1.00644 22.0032C1.00469 22.5432 1.45319 23.0046 2.00319 23.0064L15.0031 23.0486C15.5631 23.0504 16.0046 22.5919 16.0064 22.0519L16.0096 21.0519L1.00969 21.0032L1.00644 22.0032ZM8.54859 9.0276C4.79861 9.01542 1.04214 11.0032 1.02916 15.0032L16.0291 15.0519C16.0421 11.0519 12.2986 9.03977 8.54859 9.0276ZM3.65564 13.0117C4.77066 11.4653 7.13211 11.023 8.5421 11.0276C9.95209 11.0322 12.3106 11.4898 13.4156 13.0434L3.65564 13.0117ZM1.02267 17.0032L16.0226 17.0519L16.0161 19.0519L1.01618 19.0032L1.02267 17.0032ZM18.0615 5.05845L18.0745 1.05847L16.0745 1.05198L16.0615 5.05196L11.0616 5.03573L11.2851 7.03647L20.845 7.06749L19.3996 21.0629L18.0096 21.0584L18.0031 23.0584L19.7231 23.0639C20.5631 23.0667 21.2552 22.4189 21.3579 21.5992L23.0615 5.07468L18.0615 5.05845Z" fill="white"/>
</svg>
