<svg width="1297" height="1127" viewBox="0 0 1297 1127" fill="none" xmlns="http://www.w3.org/2000/svg">
<g clip-path="url(#clip0_28_41)">
<path d="M384.828 202C397.493 202.001 407.76 212.267 407.76 224.932V465.553C407.76 487.814 436.285 497.019 449.297 478.957L641.951 211.528C646.261 205.546 653.185 202 660.558 202H851.443C870.389 202 881.162 223.672 869.725 238.776L622.92 564.672C616.746 572.826 616.717 584.082 622.85 592.267L884.398 941.318C895.726 956.436 884.939 978 866.047 978H662.809C655.408 978 648.462 974.428 644.156 968.409L449.343 696.023C436.369 677.883 407.76 687.061 407.76 709.363V955.069C407.76 967.734 397.493 978 384.828 978H214.952C202.288 978 192.021 967.734 192.021 955.069V707.532C216.621 750.191 232.54 807.271 245.441 883.934C268.006 692.885 319.29 616.37 543.161 587.769C337.777 557.536 269.034 495.797 245.441 290.049C234.954 368.409 218.514 425.22 192.021 467.285V224.932C192.021 212.267 202.288 202 214.952 202H384.828Z" fill="#FFBF00"/>
<ellipse cx="1040.48" cy="857.107" rx="114.657" ry="114.657" fill="#FFBF00"/>
</g>
<defs>
<clipPath id="clip0_28_41">
<rect width="1296.75" height="1126.12" fill="white"/>
</clipPath>
</defs>
</svg>
